<svg id="Layer_1" data-name="Layer 1" xmlns="http://www.w3.org/2000/svg" viewBox="0 0 439.3 392.5">
  <defs>
    <style>
      .cls-1 {
        fill: #fff;
      }

      .cls-2 {
        fill: none;
        stroke: #fff;
        stroke-miterlimit: 10;
        stroke-width: 20px;
      }

      .cls-3 {
        fill: #020202;
      }
    </style>
  </defs>
  <title>business</title>
  <path class="cls-1" d="M719.3,475c-50.2,40.7-120.8,60.8-204.4,67.9a155.6,155.6,0,0,1-30-.4c-81.2-8.8-151.6-28.9-204.6-67.5V410.7A27.8,27.8,0,0,1,308,383H691.6a27.8,27.8,0,0,1,27.7,27.7V475Z" transform="translate(-280 -298.5)"/>
  <path class="cls-2" d="M425.4,383a74.4,74.4,0,0,1,148.8,0" transform="translate(-280 -298.5)"/>
  <path class="cls-1" d="M501.5,546C415.4,546,338,521.6,280,482V663.7c0,15.2,12.7,27.3,28,27.3H691.6A27.2,27.2,0,0,0,719,663.7V484.7C662,522.7,585.7,546,501.5,546Z" transform="translate(-280 -298.5)"/>
  <path class="cls-3" d="M480.1,540.9c0-6.4-.4-13,0-19.4,0.6-10.1,12.2-7.8,19.4-7.8s18.7-2.3,19.4,7.8c0.5,6.4,0,13,0,19.4a1.5,1.5,0,0,0,3,0c0-6.2.1-12.4,0-18.6s-3.8-11.4-10.8-11.6-14.2,0-21.3,0-12.3,2.5-12.7,10,0,13.5,0,20.1a1.5,1.5,0,0,0,3,0h0Z" transform="translate(-280 -298.5)"/>
  <path class="cls-3" d="M519.2,546.6c0,5.8.5,11.8,0,17.5-0.9,9.5-13.1,7.1-19.9,7.1s-18.1,2.2-18.9-7.3c-0.5-5.8,0-11.8,0-17.6a1.5,1.5,0,0,0-3,0v10.9c0,3.2-.5,7,0.5,10.1,2.9,8.9,14.2,6.8,21.5,6.8s18.4,2.2,22-5.9c1.4-3.1.9-7.1,0.9-10.4V546.6a1.5,1.5,0,0,0-3,0h0Z" transform="translate(-280 -298.5)"/>
</svg>
