<svg id="Layer_1" data-name="Layer 1" xmlns="http://www.w3.org/2000/svg" viewBox="0 0 324.3 324.3">
  <defs>
    <style>
      .cls-1 {
        fill: #666;
      }
    </style>
  </defs>
  <title>cross-autocomplete</title>
  <path class="cls-1" d="M500,338A162.1,162.1,0,1,0,662.1,500.1,162.1,162.1,0,0,0,500,338Zm51.4,247-26.6-35.4C514,536.1,507.2,527,500.6,518H500c-5.9,9-11.8,17.9-22.6,31.8L452.3,585h-31l63.8-80.9L423.8,425h31.3l27.6,37.7c7.7,10.4,13.6,18.3,19.2,27.3h0.9c5.9-10,11.2-17.1,18.9-27.3L550.2,425h31l-63.5,77.9L582.8,585H551.5Z" transform="translate(-337.9 -338)"/>
</svg>
