<svg id="Layer_1" data-name="Layer 1" xmlns="http://www.w3.org/2000/svg" viewBox="0 0 403 370.2">
  <defs>
    <style>
      .cls-1 {
        fill: #fff;
      }
    </style>
  </defs>
  <title>health</title>
  <g>
    <path class="cls-1" d="M606.9,350.7a118.1,118.1,0,0,0-166.9-.2A118.2,118.2,0,0,0,259.1,501H307l30.9-62.8,25.9,88.1,27.6-111.9,25.8,152.9,29.4-93.2,13,22.9H623.6A118.3,118.3,0,0,0,606.9,350.7Z" transform="translate(-238.5 -316.1)"/>
    <path class="cls-1" d="M448,485.2L415.4,584,390.6,430.4,364.7,541.3l-28-92.1L307,504H259.1a114.4,114.4,0,0,0,14,16.8,118.9,118.9,0,0,0,12.1,10.6L440.2,686.3,596.5,530a118.2,118.2,0,0,0,10.4-9.2A136.1,136.1,0,0,0,623.6,500H456.7Z" transform="translate(-238.5 -316.1)"/>
  </g>
</svg>
