<svg id="Layer_1" data-name="Layer 1" xmlns="http://www.w3.org/2000/svg" xmlns:xlink="http://www.w3.org/1999/xlink" viewBox="0 0 1024 1024"> <defs> <style> .cls-1 { fill: url(#radial-gradient); } .cls-2 { fill: #353535; opacity: 0.3; } .cls-3 { fill: #eaeaea; } .cls-4 { fill: #d8d8d8; } .cls-5 { fill: #fff; } .cls-6 { fill: #2db0f2; } .cls-7 { opacity: 0.5; fill: url(#linear-gradient); } </style> <radialGradient id="radial-gradient" cx="18.62" cy="9.62" r="1362.42" gradientUnits="userSpaceOnUse"> <stop offset="0" stop-color="#2db0f2"/> <stop offset="0.19" stop-color="#2f9df1"/> <stop offset="0.57" stop-color="#346eee"/> <stop offset="0.61" stop-color="#3567ee"/> <stop offset="0.7" stop-color="#3473ef"/> <stop offset="0.86" stop-color="#3091f0"/> <stop offset="1" stop-color="#2db0f2"/> </radialGradient> <linearGradient id="linear-gradient" x1="472.14" y1="759.53" x2="472.14" y2="945.7" gradientUnits="userSpaceOnUse"> <stop offset="0" stop-color="#fff"/> <stop offset="1" stop-color="#9b9b9b"/> </linearGradient> </defs> <title>logo</title><rect class="cls-1" width="1024" height="1024" rx="226.4" ry="226.4"/> <rect class="cls-2" x="202.7" y="278.7" width="620.8" height="584.84" rx="42.7" ry="42.7"/> <rect class="cls-3" x="273" y="272.7" width="543.3" height="583.69" rx="42.7" ry="42.7"/> <rect class="cls-4" x="593.1" y="272.7" width="172.4" height="583.69"/> <path class="cls-5" d="M243.2,179.6H701a42.7,42.7,0,0,1,42.7,42.7V854.9a1.5,1.5,0,0,1-1.5,1.5h-499a42.7,42.7,0,0,1-42.7-42.7V222.4a42.7,42.7,0,0,1,42.7-42.7Z"/> <rect class="cls-6" x="243.5" y="247.8" width="228.7" height="271.3"/> <rect class="cls-4" x="488.8" y="247.8" width="212.1" height="23.64"/> <rect class="cls-4" x="488.8" y="288.1" width="212.1" height="23.64"/> <rect class="cls-4" x="488.8" y="330" width="212.1" height="23.64"/> <rect class="cls-4" x="488.8" y="370.3" width="212.1" height="23.64"/> <rect class="cls-4" x="488.8" y="412.2" width="212.1" height="23.64"/> <rect class="cls-4" x="488.8" y="454.1" width="212.1" height="23.64"/> <rect class="cls-4" x="488.8" y="494.4" width="212.1" height="23.64"/> <rect class="cls-4" x="243.5" y="540.9" width="457.4" height="23.64"/> <rect class="cls-4" x="243.5" y="587.4" width="457.4" height="23.64"/> <path class="cls-7" d="M743.8,786.1v68.6c0,0.7-.5,1.8-1.2,1.8H240.3c-18.8,0-38.4-16.5-39.8-37V786.1"/> <rect class="cls-4" x="243.5" y="633.9" width="457.4" height="23.64"/> <rect class="cls-4" x="243.5" y="680.5" width="457.4" height="23.64"/> <rect class="cls-4" x="243.5" y="720.7" width="457.4" height="23.64"/> <rect class="cls-4" x="243.5" y="767.3" width="457.4" height="23.64"/> <rect class="cls-4" x="243.5" y="813.8" width="457.4" height="23.64"/> </svg>