<svg id="on_boarding-_one" data-name="on boarding- one" xmlns="http://www.w3.org/2000/svg" viewBox="0 0 403.1 563.7">
  <defs>
    <style>
      .cls-1 {
        fill: #e1e4ea;
        opacity: 0.5;
      }

      .cls-2, .cls-3 {
        fill: #2d3135;
      }

      .cls-2 {
        opacity: 0.05;
      }

      .cls-4 {
        fill: #404b56;
      }

      .cls-5 {
        fill: #d39789;
      }

      .cls-6 {
        fill: #2f62bc;
      }

      .cls-7 {
        fill: #fff;
      }

      .cls-8 {
        fill: #4079cc;
      }

      .cls-9 {
        fill: #92adb4;
      }

      .cls-10 {
        fill: #c9c9c9;
      }
    </style>
  </defs>
  <title>on-boarding-1</title>
  <g>
    <path class="cls-1" d="M695.4,473.7c78.7,98.8-30.1,212.8-156.4,212.8S319,678.6,319,552.3,432.5,239.7,558.8,239.7,616.5,374.5,695.4,473.7Z" transform="translate(-319 -239.7)"/>
    <g>
      <ellipse class="cls-2" cx="182.7" cy="550.6" rx="113.2" ry="13.1"/>
      <path class="cls-3" d="M503,605.9l25.2,65a18.9,18.9,0,0,0,1.6,3.2l63.6,100.6a20,20,0,0,0,24.1,7.8h0c9.9-3.8,10.4-14.6,6.8-24.3l-47.9-91.5a18.6,18.6,0,0,1-1-4.1l13-100.4c-1.1-8.8-10.5,10.1-19.6,9.1-17.5-1.9-45.7-1.8-62.1,15.1A18.4,18.4,0,0,0,503,605.9Z" transform="translate(-319 -239.7)"/>
      <path class="cls-4" d="M473,573.3l-44.4,81.7a16,16,0,0,0-1.7,5.2L410.8,764.9a16,16,0,0,0,9.8,17.2h0a16,16,0,0,0,20.5-8.2l45.7-99.7s12.8-27.5,37.1-46.5,60.1-29.8,64.7-63.6c2.5-18-83.4-8.3-108,2.3A15.6,15.6,0,0,0,473,573.3Z" transform="translate(-319 -239.7)"/>
      <path class="cls-5" d="M533.5,359.9s4.8,29.8,11.3,31.9-7.6,14-17.6,10.9c0,0-5.4-12.2-14.4-17.8" transform="translate(-319 -239.7)"/>
      <path class="cls-6" d="M510.2,412.7s-49.8,132.2-46.2,150,25.4,26.3,124.6,1.4c0,0,3.6-90.4-18.7-147C569.9,417.1,542.3,396,510.2,412.7Z" transform="translate(-319 -239.7)"/>
      <path class="cls-6" d="M562.5,381.5s29.7,27.5,10.1,47.2-66.7-13.2-66.7-13.2S553.3,383.8,562.5,381.5Z" transform="translate(-319 -239.7)"/>
      <path class="cls-5" d="M529.7,339.5c10,20.3,6,42.7-8.9,50s-35-3.3-45-23.6-3.7-40.4,11.2-47.7S519.8,319.1,529.7,339.5Z" transform="translate(-319 -239.7)"/>
      <path class="cls-3" d="M499.5,348.3c2.7-1.3,2.1-4.8,5.4-6.8,10.3-6.2,6.8,16.5,10.9,18.4,20.9,9.6,14.6,24.1,21.1,6.9s-24.2-69.1-30.7-62.6-20.6,14.7-43.7,24c-17.8,7.1-8.1,16.3-2.8,20.1a11.2,11.2,0,0,0,5.6,2C472.5,350.8,491.6,352.1,499.5,348.3Z" transform="translate(-319 -239.7)"/>
      <path class="cls-3" d="M483.6,377.6s12.8,1.7,17.9,0c11.9-4-2.8-30.7-2-31s14.4,12.9,14.4,12.9,14.2,15.8,14.2,28S499.9,412.8,483.6,377.6Z" transform="translate(-319 -239.7)"/>
      <polygon class="cls-7" points="186.9 175.8 234.8 139.1 243.5 141.8 186.9 175.8"/>
      <path class="cls-5" d="M418.2,446s-10.6-15.7-9.2-17.1,5.8,2.2,5.8,2.2l8,8.2s7.6,15.7,9.7,15.7-4.4,2.5-4.4,2.5Z" transform="translate(-319 -239.7)"/>
      <polygon class="cls-5" points="113.2 204 117.6 212.3 114.5 217.7 107.6 214.9 106.7 206.6 113.2 204"/>
      <path class="cls-3" d="M411.9,412.7l-4.7,2.6a4.5,4.5,0,0,0-1.3,6.6l19,25.7a4.1,4.1,0,0,0,6.8-.2l2.4-3.7a4.6,4.6,0,0,0-.1-5.1l-16.6-24.7A4.1,4.1,0,0,0,411.9,412.7Z" transform="translate(-319 -239.7)"/>
      <path class="cls-5" d="M434.5,463.7s-13.9-10.6-15.5-16.2c-1.1-4.1,4.6-8.9,7.8-11.2a1.3,1.3,0,0,1,2,1.1c-0.2,2.2-.8,5.1-3.1,6.3s3.6,12.9,7.9,11.8S434.5,463.7,434.5,463.7Z" transform="translate(-319 -239.7)"/>
      <path class="cls-8" d="M517.3,430.6a12.7,12.7,0,0,1,7.5-7.2c9.9-3.6,30.2-7,38.3,20.5,11,37-52.1,74.1-70.6,71.2-13.9-2.2-43.6-27.6-57.4-40.1a12.6,12.6,0,0,1-2.6-15.5h0a12.6,12.6,0,0,1,18.9-3.8c13.7,10.8,35.5,26.3,40.6,21.3C498.9,469.9,509.7,449.2,517.3,430.6Z" transform="translate(-319 -239.7)"/>
      <path class="cls-6" d="M432.7,469.6l-6.2-5.5s4-11.5,13.4-14.2l6.6,4.5S445.7,467.7,432.7,469.6Z" transform="translate(-319 -239.7)"/>
      <path class="cls-9" d="M546.5,587" transform="translate(-319 -239.7)"/>
      <path class="cls-10" d="M434.7,770l7.1,2.6,4.1,14.3a5.5,5.5,0,0,1,1.1,2.3c0.6,2.8,1.3,9.1-5.4,9.1s-45.2-.1-71.5-19.6a5.6,5.6,0,0,1,2.4-10l38.5-4.4" transform="translate(-319 -239.7)"/>
      <path class="cls-10" d="M614.3,755.2l7.1-2.6,12.3,8.3a5.5,5.5,0,0,1,2.4,1c2.3,1.8,6.8,6.1,1.7,10.4s-34.7,28.9-67.4,30.9a5.6,5.6,0,0,1-4.6-9.2l24-25.4" transform="translate(-319 -239.7)"/>
      <path class="cls-4" d="M410.9,764.3s14.1,5.9,17.2,9,14.5,4,14.5,4-0.7-7.2,1-8.9S416.9,760.8,410.9,764.3Z" transform="translate(-319 -239.7)"/>
      <path class="cls-3" d="M589,770.3s25.7-7.7,28.8-13.2,3.5-3.4,5-3.4-2.7-5.6-6.8-4.7S585.6,763.6,589,770.3Z" transform="translate(-319 -239.7)"/>
    </g>
  </g>
</svg>
