<svg id="on_boarding_two" data-name="on boarding two" xmlns="http://www.w3.org/2000/svg" viewBox="0 0 403.1 521.1">
  <defs>
    <style>
      .cls-1 {
        fill: #e1e4ea;
        opacity: 0.5;
      }

      .cls-2 {
        fill: #282b2d;
      }

      .cls-3 {
        fill: #929ba5;
      }

      .cls-4 {
        fill: #8a939b;
      }

      .cls-5 {
        fill: #b4bfcc;
      }

      .cls-6 {
        fill: #cc968b;
      }

      .cls-7 {
        fill: #2f62bc;
      }

      .cls-8 {
        fill: #4079cc;
      }

      .cls-9 {
        fill: #d39789;
      }

      .cls-10 {
        fill: #2d3135;
      }

      .cls-11 {
        fill: #c9c9c9;
      }

      .cls-12 {
        fill: #404b56;
      }
    </style>
  </defs>
  <title>on-boarding-2</title>
  <path class="cls-1" d="M674.9,489.2C753.6,588,644.8,702,518.6,702s-220.1-7.9-220.1-134.2S412,255.3,538.3,255.3,596,390.1,674.9,489.2Z" transform="translate(-298.5 -255.3)"/>
  <path class="cls-2" d="M471.3,351.8s-11.6,51-11.6,64.3-14.8,33.8-14.8,33.8c1,3.1,4,3.6,6.9,4.4l60-22.5,3.5-29.9-16.2-27.1S479.1,339,471.3,351.8Z" transform="translate(-298.5 -255.3)"/>
  <polygon class="cls-3" points="235.6 366.3 261.5 363.9 270.6 521.1 235.6 366.3"/>
  <polygon class="cls-4" points="274.6 330.1 297.9 327.9 306.1 469.2 274.6 330.1"/>
  <polygon class="cls-3" points="207.7 350.1 181.7 347.9 172.6 489 207.7 350.1"/>
  <path class="cls-5" d="M612.2,475.3s-55-49.5-111.8,3.7c0,0,2.7,98.3-47.9,124.9,0,0,73.8,61.4,135.4,13S612.2,475.3,612.2,475.3Z" transform="translate(-298.5 -255.3)"/>
  <path class="cls-6" d="M476.8,432.8s-13.7,4.9-17.7,11.8-11.9,70.9-34,102.5c0,0,5.4,12.8,18.8,5S477.3,496.2,476.8,432.8Z" transform="translate(-298.5 -255.3)"/>
  <path class="cls-7" d="M509.6,422.1c-17.9,0-45.7,6.5-47.9,29.3,0,0,36.7,80.8,22.7,105.5s89.7,20.2,97,0S592,448.1,566.8,411.7C566.8,411.7,525.9,426.3,509.6,422.1Z" transform="translate(-298.5 -255.3)"/>
  <path class="cls-6" d="M489,392.1s16.7,21.9,16.7,30.3,39.2,0.6,39.2-23.5l-15.7-24.1S489,384.1,489,392.1Z" transform="translate(-298.5 -255.3)"/>
  <path class="cls-8" d="M479.1,428.6s-29.6,4-33.5,59.1c0,0,18.9,6.3,27.4,3.3C462.4,449.8,470.5,442.8,479.1,428.6Z" transform="translate(-298.5 -255.3)"/>
  <ellipse class="cls-9" cx="499.1" cy="364.2" rx="34.4" ry="41.7" transform="translate(-338.3 -193.3) rotate(-6.8)"/>
  <polygon class="cls-10" points="177.8 220.3 168.9 228.4 134.6 207.7 149.3 206.5 177.8 220.3"/>
  <polygon class="cls-10" points="177.7 220.4 168.8 226.4 134.6 207.7 150.7 200.9 177.7 220.4"/>
  <path class="cls-10" d="M489,336.8s-24.7,1.8-21.3,44.4-12.1,69.2-21.4,69.2,18.6-55.3,15.5-81.4,9.3-56.8,50.1-50.4C511.8,318.7,494.2,336.8,489,336.8Z" transform="translate(-298.5 -255.3)"/>
  <path class="cls-9" d="M568.3,427.7s20.7,6.1,14.2,23.6-39.1,83-60.6,82.3c-11.2-.4-71.1-49.6-79-59s33.8,6.9,35.8,9.3,39.6,25.2,40,20.2S546.6,446.2,568.3,427.7Z" transform="translate(-298.5 -255.3)"/>
  <path class="cls-8" d="M553.7,420s-14.8,43.1-21.6,51,32.7,23.7,35.6,21.5,21.3-47.8,22.6-58.1S564.9,407.9,553.7,420Z" transform="translate(-298.5 -255.3)"/>
  <path class="cls-10" d="M489,336.8s31.6,17.3,31.6,63.5,54,56.3,54,56.3,23.2,3.9,26.1-16.5-42.9-33.8-60.7-89.9C540,350.3,520.9,289.3,489,336.8Z" transform="translate(-298.5 -255.3)"/>
  <path class="cls-11" d="M353.7,687.1l-1.9,3.6s-26.6-4-32.3-6.5S307,694.9,307,696.8s30.2,17.1,37.2,15.9,19.1,0,19.1,0V722l5.9,2.5,6.8-7.2a33.2,33.2,0,0,0,3.6-21.8C377.3,683.2,360.7,679,353.7,687.1Z" transform="translate(-298.5 -255.3)"/>
  <path class="cls-11" d="M477.8,741.3l-0.2,4.1s-25.9,7.5-32,7.6-6.9,14.8-6.1,16.6,34.6,2.9,40.4-1,17.4-7.9,17.4-7.9l3.8,8.4,6.4-.2,3.2-9.4a33.2,33.2,0,0,0-5.8-21.3C497.6,727.8,480.7,731,477.8,741.3Z" transform="translate(-298.5 -255.3)"/>
  <path class="cls-10" d="M501.4,555.4s-81.3,41.7-81.3,52.9,51.1,139,51.1,139,22.5,11.5,38-3.9L479.6,627.4l72.3-12.3S526.5,550.1,501.4,555.4Z" transform="translate(-298.5 -255.3)"/>
  <path class="cls-12" d="M583.1,549.3s14.2,28.2-2.6,59.1-141.3-14.3-152.9-5.4-31.5,57.6-41.6,94.6c0,0-43.2-5.6-38.2-19.6,7.8-21.9,32.8-102.1,57.1-126.4S555.1,559.4,583.1,549.3Z" transform="translate(-298.5 -255.3)"/>
  <path class="cls-9" d="M467.8,478.2s-3.9-6.8-2.8-7.7,9.4,4.7,15.3,13.4S467.8,478.2,467.8,478.2Z" transform="translate(-298.5 -255.3)"/>
</svg>
