<svg id="Layer_1" data-name="Layer 1" xmlns="http://www.w3.org/2000/svg" viewBox="0 0 377.3 377.3">
  <defs>
    <style>
      .cls-1 {
        fill: #fff;
      }
    </style>
  </defs>
  <title>world</title>
  <path class="cls-1" d="M657,395a2.1,2.1,0,0,1-1.4,2.5,12.8,12.8,0,0,0-2.6,1.3,2.1,2.1,0,0,0-.2,3.4c11.6,10,21.7,51.7,18.1,57s2.8,13.9,8.1,22.6-0.2,18.8-.2,17.1,1.8-8.5-3-8.5-0.2,16.5,4.4,26.8,0,8.1,0,8.1c-3.4,0-9.7-18.8-9.7-23.2s0.4-14.9-14.3-28-14.3,15.1-17.3,16.9-0.2,37.9-7.9,34.1-18.8-38.1-23-38.1a3.5,3.5,0,0,1-3.8-3.5,2.1,2.1,0,0,0-.4-1.1c-8.3-11.7-26.9-4.1-28.9-4.1s-9.9-8.3-18.4-6.7-9.9-11.1-13.7-11.1-9.3,10.3,8.5,22.2,22.6,0.8,21.8,15.2-36,23.9-38.8,24.6h-0.4c-1.2.1-7.3,0.1-7.3-7.5s-6.3-3-14.5-25c-5.8-15.4-12.7-18-16.3-18.2a2.1,2.1,0,0,0-2.2,2.4c1.2,7.6,6.3,33.2,23.7,45.7,15.6,11.2,28.8,12.8,34.2,13a2.1,2.1,0,0,1,2,2.8c-5.9,17.1-39.1,46.2-40.8,51.2s5,23.6,7.4,30.4a2.1,2.1,0,0,1-1.6,2.8c-4.9.9-15.6,4.1-17.5,14.6-2.4,13.7-23.2,31.9-32.7,27.8s-45.2-34.5-40.7-52.4c4-16.1-11.2-34.5-14.4-38.1a2.1,2.1,0,0,1-.5-1.5c0.9-21.8-9.7-18.4-11.3-24.3s-32.3-2.8-35.1-9.3-18-5.4-10.7-43.4,16.5-20,24.8-38.1S413.7,438,425,438c8.1,0,7.3,8.4,6.2,13.1a2.1,2.1,0,0,0,2.3,2.6c2.8-.3,6.5-0.3,7.2,2.4s6.9,5.2,10.2,6.1a2.1,2.1,0,0,0,2.6-1.5c3.4-11.2,16.8-2.4,18.8-1l0.6,0.3c27,7.9,28.1-4.3,27.5-9.4a2.1,2.1,0,0,0-2.3-1.8c-26.9,2.2-25.1-19.8-25.1-19.8-0.8,8.7-4.9,11.6-7.7,12.6a2.1,2.1,0,0,1-2.7-1.7c-0.9-5.1-9.4-7.3-12.4-7.9a2.1,2.1,0,0,1-1.4-1.2c-8.4-17.9-26.8-9.9-30.5-8.1a2.1,2.1,0,0,0-1,1c-6.5,14.3-19.5,9.6-23.3,7.9a2.1,2.1,0,0,1-1.2-1.7c-0.5-6.3,5.1-17.8,15.1-15.4s9.7-6.9,9.7-10a2.1,2.1,0,0,1,.9-1.7c24.9-17.3,42.7-9.1,48.7-13.7s7.7,5.6,13.7-11.7c5.4-15.6-9.1-6.1-12.2-4a2.1,2.1,0,0,0-.8,1c-5.3,14.4-9.2,12.1-10.9,9.8a2.2,2.2,0,0,1,.2-2.7,5.6,5.6,0,0,0,1.2-3.1,2.1,2.1,0,0,0-3-2.2c-4.1,2-5.7,1.4-6.4.4a2.1,2.1,0,0,1,.4-2.6c39.2-36.4,42.7-18.3,49.3-11.7s7.5,1.4,13.7-4.9,14.8,3.8,23-4.4c5.7-5.7,8.1-13.2,9.1-17.4a2.1,2.1,0,0,1,3.1-1.4c7.5,3.9,16-6.1,18.7-9.7a2.1,2.1,0,0,1,1.9-.8,188.2,188.2,0,0,0-67.7-12.5c-104.2,0-188.6,84.5-188.6,188.6s84.5,188.6,188.6,188.6,188.6-84.5,188.6-188.6A187.8,187.8,0,0,0,657,395Z" transform="translate(-311.8 -311.6)"/>
</svg>
